<?xml version="1.0" encoding="utf-8"?>
<!-- Generator: Adobe Illustrator 27.3.1, SVG Export Plug-In . SVG Version: 6.00 Build 0)  -->
<svg version="1.1" id="Laag_1" xmlns="http://www.w3.org/2000/svg" xmlns:xlink="http://www.w3.org/1999/xlink" x="0px" y="0px"
	 viewBox="0 0 935 655" style="enable-background:new 0 0 935 655;" xml:space="preserve">
<style type="text/css">
	.Slagschaduw{fill:none;}
	.Afgeronde_x0020_hoeken_x0020_2_x0020_pt{fill:#FFFFFF;stroke:#1D1D1B;stroke-miterlimit:10;}
	.X_x0020_actief_x0020_weerspiegelen{fill:none;}
	.Zachte_x0020_schuine_x0020_kant{fill:url(#SVGID_1_);}
	.Schemering{fill:#FFFFFF;}
	.Gebladerte_AS{fill:#FFDD00;}
	.Pompadoer_AS{fill-rule:evenodd;clip-rule:evenodd;fill:#51AEE2;}
	.st0{display:none;fill:#1D1D1B;stroke:#1D1D1B;stroke-width:0.8155;stroke-miterlimit:10;}
	.st1{fill:none;stroke:#FFFFFF;stroke-width:2;stroke-miterlimit:10;}
	.st2{fill:none;}
	.st3{fill:#FFFFFF;}
	.st4{font-family:'MyriadPro-Regular';}
	.st5{font-size:17px;}
</style>
<linearGradient id="SVGID_1_" gradientUnits="userSpaceOnUse" x1="-492" y1="-209" x2="-491.2929" y2="-208.2929">
	<stop  offset="0" style="stop-color:#E6E6EB"/>
	<stop  offset="0.1754" style="stop-color:#E2E2E7"/>
	<stop  offset="0.3552" style="stop-color:#D6D6DB"/>
	<stop  offset="0.5371" style="stop-color:#C2C3C6"/>
	<stop  offset="0.7204" style="stop-color:#A5A7A9"/>
	<stop  offset="0.9031" style="stop-color:#818485"/>
	<stop  offset="1" style="stop-color:#6B6E6E"/>
</linearGradient>
<rect x="-53.5" y="-142.5" class="st0" width="1042" height="876"/>
<path class="st1" d="M768,255.3v44.3h-21.1v-44.3h-31.5v-20.6h31.5V25.6H652v209.2h31.1v20.6H652v44.3h-15.1v-44.3H542v44.3h-10.1
	v-44.3h-36.4l-90.3-71.4l18.8-25.2l-129.8-97l-10,13.4l-66-4.4V42.1H30.6v113.4h58.5v15.3H30.6v159.1h58.5v15H30.3v113.4h70
	c0,0,10,22.2,33.1,38.8c23,16.7,59,8.3,59,8.3l53.1-20l22.8,28.5l126.6-101.2l-49.3-61.7l8.1-21.2l16.2-3.8v42.6h162.1v-48.2H542
	v48.2h94.9v-48.2H652v48.2h31.1v20.6H652v113.4h31.1v20.6H652v113.4h94.9V523.3h-31.5v-20.6h31.5V389.3h-31.5v-20.6h31.5v-48.2H768
	v48.2h138.3V255.3H768z M369.8,299.8h-24.3l-15,32.6l-6.5-8.2L197.4,425.5l29.3,36.7c0,0-25.4,10.4-42.4,13.4
	c-17,3-53.3-17.2-53.3-17.2h61.4V345h-59v-15h59V170.8h-59v-15.3h84.7v-37.7l36.1-2.7l11.2-14.9l-39.2,52.4l129.8,97l25.2-33.7
	l52.9,39.4h-64.4V299.8z"/>
<rect x="780.4" y="268.5" class="st2" width="113.3" height="23.7"/>
<text transform="matrix(1 0 0 1 780.3679 280.5832)" class="st3 st4 st5">Sport chambre</text>
<rect x="661.4" y="265.5" class="st2" width="82.5" height="53.6"/>
<text transform="matrix(1 0 0 1 661.3679 277.5832)"><tspan x="0" y="0" class="st3 st4 st5">Sleeping</tspan><tspan x="0" y="20.4" class="st3 st4 st5">rooms</tspan></text>
<rect x="661.4" y="43.5" class="st2" width="82.5" height="53.6"/>
<text transform="matrix(1 0 0 1 661.3679 55.5832)"><tspan x="0" y="0" class="st3 st4 st5">Sleeping</tspan><tspan x="0" y="20.4" class="st3 st4 st5">rooms</tspan></text>
<rect x="661.4" y="401.5" class="st2" width="82.5" height="53.6"/>
<text transform="matrix(1 0 0 1 661.3679 413.5832)"><tspan x="0" y="0" class="st3 st4 st5">Sleeping</tspan><tspan x="0" y="20.4" class="st3 st4 st5">rooms</tspan></text>
<rect x="661.4" y="537.5" class="st2" width="82.5" height="53.6"/>
<text transform="matrix(1 0 0 1 661.3679 549.5832)"><tspan x="0" y="0" class="st3 st4 st5">Sleeping</tspan><tspan x="0" y="20.4" class="st3 st4 st5">rooms</tspan></text>
<rect x="550.4" y="265.5" class="st2" width="82.5" height="53.6"/>
<text transform="matrix(1 0 0 1 550.3679 277.5832)"><tspan x="0" y="0" class="st3 st4 st5">Shower</tspan><tspan x="0" y="20.4" class="st3 st4 st5">facilities</tspan></text>
<rect x="381.4" y="265.5" class="st2" width="137.5" height="53.6"/>
<text transform="matrix(1 0 0 1 381.3679 277.5832)"><tspan x="0" y="0" class="st3 st4 st5">Kitchen, living and </tspan><tspan x="0" y="20.4" class="st3 st4 st5">dining room</tspan></text>
<rect x="273.4" y="133.5" class="st2" width="137.5" height="53.6"/>
<text transform="matrix(1 0 0 1 273.3679 145.5832)"><tspan x="0" y="0" class="st3 st4 st5">Workstation </tspan><tspan x="0" y="20.4" class="st3 st4 st5">Agriculture</tspan></text>
<rect x="232.4" y="407.5" class="st2" width="137.5" height="53.6"/>
<text transform="matrix(1 0 0 1 232.3679 419.5832)"><tspan x="0" y="0" class="st3 st4 st5">Workstation </tspan><tspan x="0" y="20.4" class="st3 st4 st5">repairs</tspan></text>
<rect x="35.8" y="354.5" class="st2" width="143" height="53.6"/>
<text transform="matrix(1 0 0 1 35.8483 366.5837)" class="st3 st4 st5">Research facility 3</text>
<rect x="35.8" y="187.5" class="st2" width="143" height="53.6"/>
<text transform="matrix(1 0 0 1 35.8483 199.5837)" class="st3 st4 st5">Research facility 2</text>
<rect x="35.8" y="57.5" class="st2" width="143" height="53.6"/>
<text transform="matrix(1 0 0 1 35.8483 69.5837)" class="st3 st4 st5">Research facility 1</text>
</svg>
