<?xml version="1.0" encoding="utf-8"?>
<!-- Generator: Adobe Illustrator 27.3.1, SVG Export Plug-In . SVG Version: 6.00 Build 0)  -->
<svg version="1.1" id="Laag_1" xmlns="http://www.w3.org/2000/svg" xmlns:xlink="http://www.w3.org/1999/xlink" x="0px" y="0px"
	 viewBox="0 0 368 111" style="enable-background:new 0 0 368 111;" xml:space="preserve">
<style type="text/css">
	.Slagschaduw{fill:none;}
	.Afgeronde_x0020_hoeken_x0020_2_x0020_pt{fill:#FFFFFF;stroke:#1D1D1B;stroke-miterlimit:10;}
	.X_x0020_actief_x0020_weerspiegelen{fill:none;}
	.Zachte_x0020_schuine_x0020_kant{fill:url(#SVGID_1_);}
	.Schemering{fill:#FFFFFF;}
	.Gebladerte_AS{fill:#FFDD00;}
	.Pompadoer_AS{fill-rule:evenodd;clip-rule:evenodd;fill:#51AEE2;}
	.st0{fill:#FFFFFF;}
	.st1{fill:url(#SVGID_00000179635503962642077340000006222222938626969503_);}
	.st2{fill:url(#SVGID_00000163786809536329156530000005626137661208786343_);}
	.st3{fill:url(#SVGID_00000136382767086051352920000006712840405216445588_);}
	.st4{fill:url(#SVGID_00000016764839247949699850000018287349488758756013_);}
</style>
<linearGradient id="SVGID_1_" gradientUnits="userSpaceOnUse" x1="-776" y1="-486" x2="-775.2929" y2="-485.2929">
	<stop  offset="0" style="stop-color:#E6E6EB"/>
	<stop  offset="0.1754" style="stop-color:#E2E2E7"/>
	<stop  offset="0.3552" style="stop-color:#D6D6DB"/>
	<stop  offset="0.5371" style="stop-color:#C2C3C6"/>
	<stop  offset="0.7204" style="stop-color:#A5A7A9"/>
	<stop  offset="0.9031" style="stop-color:#818485"/>
	<stop  offset="1" style="stop-color:#6B6E6E"/>
</linearGradient>
<path class="st0" d="M361.5,80.5H7.1c-1.4,0-2.5-1.3-2.5-3s1.1-3,2.5-3h354.4c1.4,0,2.5,1.3,2.5,3S362.9,80.5,361.5,80.5z"/>
<g>
	<path class="st0" d="M11.9,95.8c0.8,1.4,1.1,2,1.4,2.7c0.3-0.6,0.6-1.3,1.4-2.7l1.4-2.5c0.3-0.6,0.8-1,1.5-1c0.7,0,1.3,0.4,1.6,1.2
		l2.3,7.9h-2.8L18,98.3c-0.3-1-0.5-1.7-0.6-2.5c-0.3,0.6-0.6,1.3-1.2,2.5l-1.2,2.2c-0.5,0.9-0.9,1-1.6,1c-0.7,0-1.1-0.1-1.6-1
		l-1.2-2.3c-0.7-1.2-1-1.9-1.3-2.5c-0.1,0.7-0.3,1.5-0.6,2.5l-0.8,3.1H5.1l2.3-7.9c0.2-0.8,0.9-1.2,1.6-1.2c0.7,0,1.2,0.4,1.5,1
		L11.9,95.8z"/>
	<path class="st0" d="M26.4,101.4l1.7-2.3h2.2c0.5,0,1.2,0,1.6,0c-0.2-0.3-0.6-0.9-0.9-1.3l-1.6-2.4l-4.2,5.9h-3.3l5.7-8.1
		c0.4-0.5,0.9-1,1.8-1c0.8,0,1.4,0.4,1.8,1l5.6,8.1H26.4z"/>
	<path class="st0" d="M50.5,101.4h-3.7l-2-2.4h-4.3v2.4h-2.8v-4.6h7.8c0.9,0,1.5-0.4,1.5-1c0-0.7-0.6-1-1.5-1h-7.8l1.8-2.3h5.8
		c2,0,4.6,0.6,4.6,3.2c0,1.4-0.9,2.5-2.3,2.8c0.3,0.2,0.6,0.5,1.3,1.2L50.5,101.4z"/>
	<path class="st0" d="M62.6,92.4l-1.8,2.3h-3.2v6.6h-2.8v-6.6h-4.2l1.8-2.3H62.6z"/>
	<path class="st0" d="M66.3,101.4h-2.8v-9h2.8V101.4z"/>
	<path class="st0" d="M71.8,101.4l1.7-2.3h2.2c0.5,0,1.2,0,1.6,0c-0.2-0.3-0.6-0.9-0.9-1.3l-1.6-2.4l-4.2,5.9h-3.3l5.7-8.1
		c0.4-0.5,0.9-1,1.8-1c0.8,0,1.4,0.4,1.8,1l5.6,8.1H71.8z"/>
	<path class="st0" d="M91.2,101.1l-5.5-4.9v5.3h-2.5V94c0-1.2,0.7-1.7,1.5-1.7c0.3,0,0.7,0.1,1.1,0.5l5.5,4.9v-5.3h2.5v7.4
		c0,1.2-0.7,1.7-1.5,1.7C91.9,101.5,91.6,101.5,91.2,101.1z"/>
	<path class="st0" d="M104.4,101.4l1.7-2.3h2.2c0.5,0,1.2,0,1.6,0c-0.2-0.3-0.6-0.9-0.9-1.3l-1.6-2.4l-4.2,5.9h-3.3l5.7-8.1
		c0.4-0.5,0.9-1,1.8-1c0.8,0,1.4,0.4,1.8,1l5.6,8.1H104.4z"/>
	<path class="st0" d="M118.6,101.4h-2.8v-9h2.8V101.4z"/>
	<path class="st0" d="M133,101.4h-3.7l-2-2.4h-4.3v2.4h-2.8v-4.6h7.8c0.9,0,1.5-0.4,1.5-1c0-0.7-0.6-1-1.5-1h-7.8l1.8-2.3h5.8
		c2,0,4.6,0.6,4.6,3.2c0,1.4-0.9,2.5-2.3,2.8c0.3,0.2,0.6,0.5,1.3,1.2L133,101.4z"/>
	<path class="st0" d="M141.8,92.4l4,5.9l4.2-5.9h3.3l-5.7,8.1c-0.4,0.5-0.9,1-1.8,1c-0.8,0-1.4-0.4-1.8-1l-5.6-8.1H141.8z"/>
	<path class="st0" d="M157.1,101.4h-2.8v-9h2.8V101.4z"/>
	<path class="st0" d="M167.2,96c2.2,0,3.4,0.8,3.4,2.4c0,1.8-1.1,2.9-3.8,2.9h-8.3l1.8-2.3h6.8c0.7,0,1-0.2,1-0.7
		c0-0.5-0.3-0.6-1-0.6H162c-2.3,0-3.4-1-3.4-2.6c0-1.7,1.1-2.8,3.8-2.8h7.8l-1.8,2.3h-6.2c-0.6,0-1,0.2-1,0.6c0,0.5,0.3,0.6,1,0.6
		H167.2z"/>
	<path class="st0" d="M183.4,97.5c0,2.7-1.9,4.1-5.6,4.1c-4.3,0-6.2-1.4-6.2-4.1v-5h2.8v5c0,1.3,0.6,1.8,3.4,1.8
		c2.1,0,2.8-0.5,2.8-1.8v-5h2.8V97.5z"/>
	<path class="st0" d="M187.7,101.4l1.7-2.3h2.2c0.5,0,1.2,0,1.6,0c-0.2-0.3-0.6-0.9-0.9-1.3l-1.6-2.4l-4.2,5.9h-3.3l5.7-8.1
		c0.4-0.5,0.9-1,1.8-1c0.8,0,1.4,0.4,1.8,1l5.6,8.1H187.7z"/>
	<path class="st0" d="M208.8,99.1l-1.8,2.3h-7.9v-9h2.8v6.7H208.8z"/>
	<path class="st0" d="M212.6,101.4h-2.8v-9h2.8V101.4z"/>
	<path class="st0" d="M222.6,96c2.2,0,3.4,0.8,3.4,2.4c0,1.8-1.1,2.9-3.8,2.9h-8.3l1.8-2.3h6.8c0.7,0,1-0.2,1-0.7
		c0-0.5-0.3-0.6-1-0.6h-4.9c-2.3,0-3.4-1-3.4-2.6c0-1.7,1.1-2.8,3.8-2.8h7.8l-1.8,2.3h-6.2c-0.6,0-1,0.2-1,0.6c0,0.5,0.3,0.6,1,0.6
		H222.6z"/>
	<path class="st0" d="M230.3,101.4l1.7-2.3h2.2c0.5,0,1.2,0,1.6,0c-0.2-0.3-0.6-0.9-0.9-1.3l-1.6-2.4l-4.2,5.9h-3.3l5.7-8.1
		c0.4-0.5,0.9-1,1.8-1c0.8,0,1.4,0.4,1.8,1l5.6,8.1H230.3z"/>
	<path class="st0" d="M250,92.4l-1.8,2.3H245v6.6h-2.8v-6.6H238l1.8-2.3H250z"/>
	<path class="st0" d="M253.6,101.4h-2.8v-9h2.8V101.4z"/>
	<path class="st0" d="M268.2,96.9c0,3.2-2.2,4.6-6.5,4.6c-4.4,0-6.5-1.4-6.5-4.6c0-3.2,2.2-4.6,6.5-4.6
		C266,92.3,268.2,93.7,268.2,96.9z M265.4,96.9c0-1.9-1-2.3-3.8-2.3c-2.8,0-3.8,0.4-3.8,2.3c0,1.9,1,2.3,3.8,2.3
		C264.4,99.2,265.4,98.8,265.4,96.9z"/>
	<path class="st0" d="M277.6,101.1l-5.5-4.9v5.3h-2.5V94c0-1.2,0.7-1.7,1.5-1.7c0.3,0,0.7,0.1,1.1,0.5l5.5,4.9v-5.3h2.5v7.4
		c0,1.2-0.7,1.7-1.5,1.7C278.3,101.5,278,101.5,277.6,101.1z"/>
	<path class="st0" d="M295.3,96c2.2,0,3.4,0.8,3.4,2.4c0,1.8-1.1,2.9-3.8,2.9h-8.3l1.8-2.3h6.8c0.7,0,1-0.2,1-0.7
		c0-0.5-0.3-0.6-1-0.6h-4.9c-2.3,0-3.4-1-3.4-2.6c0-1.7,1.1-2.8,3.8-2.8h7.8l-1.8,2.3h-6.2c-0.6,0-1,0.2-1,0.6c0,0.5,0.3,0.6,1,0.6
		H295.3z"/>
	<path class="st0" d="M312.7,92.4l-5.3,6v3h-2.8v-3l-5.5-6h3.6l2.1,2.5c0.3,0.3,1,1.1,1.2,1.4c0.2-0.3,0.5-0.6,1.1-1.4l2-2.5H312.7z
		"/>
	<path class="st0" d="M321.1,96c2.2,0,3.4,0.8,3.4,2.4c0,1.8-1.1,2.9-3.8,2.9h-8.3l1.8-2.3h6.8c0.7,0,1-0.2,1-0.7
		c0-0.5-0.3-0.6-1-0.6H316c-2.3,0-3.4-1-3.4-2.6c0-1.7,1.1-2.8,3.8-2.8h7.8l-1.8,2.3h-6.2c-0.6,0-1,0.2-1,0.6c0,0.5,0.3,0.6,1,0.6
		H321.1z"/>
	<path class="st0" d="M336,92.4l-1.8,2.3h-3.2v6.6h-2.8v-6.6h-4.2l1.8-2.3H336z"/>
	<path class="st0" d="M347.3,99.1l-1.8,2.3h-8.6v-9h10.4l-1.8,2.3h-5.8v1.1h7.1l-1.6,2h-5.5v1.2H347.3z"/>
	<path class="st0" d="M354.4,95.8c0.8,1.4,1.1,2,1.4,2.7c0.3-0.6,0.6-1.3,1.4-2.7l1.4-2.5c0.3-0.6,0.8-1,1.5-1
		c0.7,0,1.3,0.4,1.6,1.2l2.3,7.9h-2.8l-0.8-3.1c-0.3-1-0.5-1.7-0.6-2.5c-0.3,0.6-0.6,1.3-1.2,2.5l-1.2,2.2c-0.5,0.9-0.9,1-1.6,1
		s-1.1-0.1-1.6-1l-1.2-2.3c-0.7-1.2-1-1.9-1.3-2.5c-0.1,0.7-0.3,1.5-0.6,2.5l-0.8,3.1h-2.7l2.3-7.9c0.2-0.8,0.9-1.2,1.6-1.2
		c0.7,0,1.2,0.4,1.5,1L354.4,95.8z"/>
</g>
<g>
	
		<radialGradient id="SVGID_00000049921711067198626450000010585309210571206024_" cx="62.7322" cy="34.9132" r="40.6344" gradientUnits="userSpaceOnUse">
		<stop  offset="0" style="stop-color:#FF6400"/>
		<stop  offset="0.3553" style="stop-color:#FF6700"/>
		<stop  offset="0.611" style="stop-color:#FF7000"/>
		<stop  offset="0.8347" style="stop-color:#FF8000"/>
		<stop  offset="1" style="stop-color:#FF9100"/>
	</radialGradient>
	<path style="fill:url(#SVGID_00000049921711067198626450000010585309210571206024_);" d="M54.1,28c4.8,8.4,6.9,12.5,8.8,16.3
		c1.8-3.8,3.9-7.8,8.7-16.2l8.7-15.5c2-3.5,4.9-5.8,9.3-5.8c4.2,0,8,2.4,9.4,7.5l13.8,47.9H96.1l-5.1-19c-1.7-6.2-2.8-10.6-3.7-15
		c-1.8,3.8-3.8,8-7.6,15.1l-7.3,13.7c-2.8,5.4-5.6,6.1-9.7,6.1s-6.8-0.7-9.7-6.1l-7.3-13.8c-4-7.5-5.9-11.3-7.7-15
		c-0.8,4.3-2,8.9-3.7,15l-5.1,19H12.6l14.1-47.9c1.5-5,5.3-7.5,9.5-7.5c4.3,0,7.2,2.2,9.2,5.8L54.1,28z"/>
	
		<radialGradient id="SVGID_00000032630651050719249020000015346951886678096260_" cx="160.0967" cy="34.466" r="37.5446" gradientUnits="userSpaceOnUse">
		<stop  offset="0" style="stop-color:#FF6400"/>
		<stop  offset="0.3553" style="stop-color:#FF6700"/>
		<stop  offset="0.611" style="stop-color:#FF7000"/>
		<stop  offset="0.8347" style="stop-color:#FF8000"/>
		<stop  offset="1" style="stop-color:#FF9100"/>
	</radialGradient>
	<path style="fill:url(#SVGID_00000032630651050719249020000015346951886678096260_);" d="M142.1,62.1l10.2-14h13.7
		c3.3,0,7.1,0,9.7,0.2c-1.5-2-3.7-5.3-5.5-7.9L160.3,26l-25.6,36.2h-19.9l34.9-49.3c2.3-3.2,5.6-6.1,10.9-6.1c5,0,8.4,2.7,10.7,6.1
		l34,49.3H142.1z"/>
	
		<radialGradient id="SVGID_00000062899952435958217370000010961469010271091630_" cx="234.4273" cy="35.3604" r="37.5446" gradientUnits="userSpaceOnUse">
		<stop  offset="0" style="stop-color:#FF6400"/>
		<stop  offset="0.3553" style="stop-color:#FF6700"/>
		<stop  offset="0.611" style="stop-color:#FF7000"/>
		<stop  offset="0.8347" style="stop-color:#FF8000"/>
		<stop  offset="1" style="stop-color:#FF9100"/>
	</radialGradient>
	<path style="fill:url(#SVGID_00000062899952435958217370000010961469010271091630_);" d="M209.8,7.7l24.5,36.2l25.6-36.2h19.9
		l-34.8,49.3c-2.4,3.2-5.7,6.1-10.9,6.1c-5,0-8.4-2.7-10.7-6.1L189.1,7.7H209.8z"/>
	
		<radialGradient id="SVGID_00000169542175469951038000000002630478311181080224_" cx="316.0389" cy="34.9132" r="32.5115" gradientUnits="userSpaceOnUse">
		<stop  offset="0" style="stop-color:#FF6400"/>
		<stop  offset="0.3553" style="stop-color:#FF6700"/>
		<stop  offset="0.611" style="stop-color:#FF7000"/>
		<stop  offset="0.8347" style="stop-color:#FF8000"/>
		<stop  offset="1" style="stop-color:#FF9100"/>
	</radialGradient>
	<path style="fill:url(#SVGID_00000169542175469951038000000002630478311181080224_);" d="M332.6,29.4c13.3,0,20.4,5,20.4,14.9
		c0,11.2-6.8,17.8-23.4,17.8H279l10.8-14H331c4,0,5.8-1.1,5.8-4c0-2.8-1.8-3.9-5.8-3.9h-29.6c-14,0-20.4-6.3-20.4-15.6
		c0-10.3,6.8-16.9,23.4-16.9h47.3l-10.8,14.2H303c-3.9,0-5.8,1-5.8,3.7c0,2.8,1.9,3.8,5.8,3.8H332.6z"/>
</g>
</svg>
