<?xml version="1.0" encoding="utf-8"?>
<!-- Generator: Adobe Illustrator 27.3.1, SVG Export Plug-In . SVG Version: 6.00 Build 0)  -->
<svg version="1.1" id="Laag_1" xmlns="http://www.w3.org/2000/svg" xmlns:xlink="http://www.w3.org/1999/xlink" x="0px" y="0px"
	 viewBox="0 0 174 41.5" style="enable-background:new 0 0 174 41.5;" xml:space="preserve">
<style type="text/css">
	.Slagschaduw{fill:none;}
	.Afgeronde_x0020_hoeken_x0020_2_x0020_pt{fill:#FFFFFF;stroke:#1D1D1B;stroke-miterlimit:10;}
	.X_x0020_actief_x0020_weerspiegelen{fill:none;}
	.Zachte_x0020_schuine_x0020_kant{fill:url(#SVGID_1_);}
	.Schemering{fill:#FFFFFF;}
	.Gebladerte_AS{fill:#FFDD00;}
	.Pompadoer_AS{fill-rule:evenodd;clip-rule:evenodd;fill:#51AEE2;}
	.st0{fill:url(#mavs-thruster-colour_00000010281373030237011190000006105231768165354391_);stroke:#1D1D1B;stroke-miterlimit:10;}
	.st1{opacity:0.15;}
	.st2{fill:none;stroke:#1D1D1B;stroke-miterlimit:10;}
</style>
<linearGradient id="SVGID_1_" gradientUnits="userSpaceOnUse" x1="-802" y1="-791" x2="-801.2929" y2="-790.2929">
	<stop  offset="0" style="stop-color:#E6E6EB"/>
	<stop  offset="0.1754" style="stop-color:#E2E2E7"/>
	<stop  offset="0.3552" style="stop-color:#D6D6DB"/>
	<stop  offset="0.5371" style="stop-color:#C2C3C6"/>
	<stop  offset="0.7204" style="stop-color:#A5A7A9"/>
	<stop  offset="0.9031" style="stop-color:#818485"/>
	<stop  offset="1" style="stop-color:#6B6E6E"/>
</linearGradient>
<g id="mavs-thruster">
	
		<linearGradient id="mavs-thruster-colour_00000106120435802686161760000002759715936171042227_" gradientUnits="userSpaceOnUse" x1="87" y1="0" x2="87" y2="41">
		<stop  offset="0" style="stop-color:#AF0000"/>
		<stop  offset="0.5897" style="stop-color:#D20000"/>
		<stop  offset="1" style="stop-color:#E50000"/>
	</linearGradient>
	
		<ellipse id="mavs-thruster-colour" style="fill:url(#mavs-thruster-colour_00000106120435802686161760000002759715936171042227_);stroke:#1D1D1B;stroke-miterlimit:10;" cx="87" cy="20.5" rx="87" ry="20.5"/>
	<g id="mavs-thruster-details" class="st1">
		<line class="st2" x1="8.5" y1="29" x2="8.5" y2="12"/>
		<line class="st2" x1="16.9" y1="33" x2="16.9" y2="8.1"/>
		<line class="st2" x1="25.2" y1="35.2" x2="25.5" y2="6"/>
		<line class="st2" x1="33.6" y1="37" x2="33.6" y2="5"/>
		<line class="st2" x1="42" y1="37.8" x2="42" y2="3"/>
		<line class="st2" x1="50.3" y1="39" x2="50.3" y2="2.4"/>
		<line class="st2" x1="58.5" y1="40" x2="58.7" y2="1.5"/>
		<line class="st2" x1="67.1" y1="40" x2="67.1" y2="1"/>
		<line class="st2" x1="75.4" y1="41" x2="75.5" y2="0"/>
		<line class="st2" x1="83.8" y1="41" x2="83.5" y2="0"/>
		<line class="st2" x1="92.2" y1="41" x2="92.2" y2="0"/>
		<line class="st2" x1="100.6" y1="41" x2="100.5" y2="0"/>
		<line class="st2" x1="108.9" y1="40.4" x2="108.9" y2="1"/>
		<line class="st2" x1="117.5" y1="40" x2="117.3" y2="1"/>
		<line class="st2" x1="125.5" y1="39" x2="125.5" y2="2"/>
		<line class="st2" x1="134" y1="38" x2="134" y2="3"/>
		<line class="st2" x1="142.4" y1="36" x2="142.4" y2="5"/>
		<line class="st2" x1="150.8" y1="34" x2="150.8" y2="7"/>
		<line class="st2" x1="159.1" y1="32" x2="159.1" y2="9"/>
		<line class="st2" x1="167.5" y1="28" x2="167.5" y2="13"/>
	</g>
</g>
</svg>
